# xmcd CD database file
#
# Track frame offsets:
#	150
#	14731
#	28323
#	45429
#	61617
#	83944
#	101102
#	112403
#	130150
#	141421
#	157659
#	170378
#	184040
#	196860
#	214250
#	228205
#	242675
#
# Disc length: 3400 seconds
#
# Revision: 6
# Processed by: cddbd v1.5PL3 Copyright (c) Steve Scherf et al.
# Submitted via: CDex 1.50
#
DISCID=e90d4611
DTITLE=Tallowood - Australian Accent
DYEAR=2000
DGENRE=Country
TTITLE0=All For Me Grog
TTITLE1=Glenreagh to Dorrigo to Glenreagh
TTITLE2=Going Back to Bellingen
TTITLE3=Blue Outback Skies
TTITLE4=Black Velvet Band
TTITLE5=Back to the Mill on Monday
TTITLE6=Wobbly Boot Hotel
TTITLE7=Gypsy Rover
TTITLE8=Athol Highlanders
TTITLE9=Dennis O'Reilly
TTITLE10=Lachlan Tigers
TTITLE11=Willow Tree
TTITLE12=Lonely In The Saddle
TTITLE13=Folk Music
TTITLE14=Request Song
TTITLE15=We Live in Australia
TTITLE16=Killekrankie
EXTD=YEAR: 2000
EXTT0=
EXTT1=
EXTT2=
EXTT3=
EXTT4=
EXTT5=
EXTT6=
EXTT7=
EXTT8=
EXTT9=
EXTT10=
EXTT11=
EXTT12=
EXTT13=
EXTT14=
EXTT15=
EXTT16=
PLAYORDER=
